# xmcd
#
# Track frame offsets:
#	183
#	14815
#	29080
#	44683
#	59153
#	74058
#	90798
#	105148
#	119095
#	132888
#	145870
#	157625
#	169958
#
# Disc length: 2455 seconds
#
# Revision: 1
# Processed by: cddbd v1.5.2PL0 Copyright (c) Steve Scherf et al.
# Submitted via: EasyCDDAExtractor 13.0.0.1
#
DISCID=bc09950d
DTITLE=Ronaldo Viola and João Carvalho - Vol.04
DYEAR=1980
DGENRE=Country
TTITLE0=Luz Do Amor
TTITLE1=Batidão Lascado
TTITLE2=Volta Por Cima
TTITLE3=Viola Viva
TTITLE4=Dom Divino
TTITLE5=Enxugue O Pranto
TTITLE6=Princesa Morena
TTITLE7=A Saudade É Acalanto
TTITLE8=Paixão Goiana (Janela Da Solidão)
TTITLE9=Dama Da Noite
TTITLE10=Amor Mazoquista
TTITLE11=Copia Da Chave
TTITLE12=Gaiteiro Velho
EXTD=
EXTT0=
EXTT1=
EXTT2=
EXTT3=
EXTT4=
EXTT5=
EXTT6=
EXTT7=
EXTT8=
EXTT9=
EXTT10=
EXTT11=
EXTT12=
PLAYORDER=
